# xmcd
#
# Track frame offsets: 
#        150
#        2978
#        19198
#        37097
#        57267
#        79060
#        98254
#        118807
#        141220
#        165548
#        179936
#        208465
#        229537
#        247854
#
# Disc length: 3514 seconds
#
# Revision: 0
# Processed by: cddbd v1.5.1PL2 Copyright (c) Steve Scherf et al.
# Submitted via: ExactAudioCopy v0.95a5
#
DISCID=bd0db80e
DTITLE=Jack Ingram - Live Wherever You Are
DYEAR=2006
DGENRE=Country
TTITLE0=Hello
TTITLE1=Wherever You Are [Studio Track]
TTITLE2=I Would
TTITLE3=How Many Days
TTITLE4=Work This Out
TTITLE5=One Thing
TTITLE6=Only Daddy That'll Walk the Line
TTITLE7=Biloxi
TTITLE8=Mustang Burn
TTITLE9=Happy Happy (Country Country)
TTITLE10=Barbie Doll
TTITLE11=Goodnight Moon
TTITLE12=Never Knocked Me Down
TTITLE13=Love You [Studio Track]
EXTD=
EXTT0=
EXTT1=
EXTT2=
EXTT3=
EXTT4=
EXTT5=
EXTT6=
EXTT7=
EXTT8=
EXTT9=
EXTT10=
EXTT11=
EXTT12=
EXTT13=
PLAYORDER=
